<mxfile host="Electron" modified="2024-04-09T08:36:18.463Z" agent="Mozilla/5.0 (Windows NT 10.0; Win64; x64) AppleWebKit/537.36 (KHTML, like Gecko) draw.io/22.1.2 Chrome/114.0.5735.289 Electron/25.9.4 Safari/537.36" etag="hFC2xq73BY_JuZHgRwXF" version="22.1.2" type="device">
  <diagram name="第 1 页" id="mjyGh2I97hBTv6UYgkH8">
    <mxGraphModel dx="2053" dy="909" grid="1" gridSize="10" guides="1" tooltips="1" connect="1" arrows="1" fold="1" page="1" pageScale="1" pageWidth="491" pageHeight="413" math="0" shadow="0">
      <root>
        <mxCell id="0" />
        <mxCell id="1" parent="0" />
        <mxCell id="0UAcNYNrfwPB4IUjelp_-44" value="" style="rounded=1;whiteSpace=wrap;html=1;fillColor=#fff2cc;strokeColor=#d6b656;opacity=40;dashed=1;strokeWidth=2;" parent="1" vertex="1">
          <mxGeometry y="100" width="620" height="358" as="geometry" />
        </mxCell>
        <mxCell id="0UAcNYNrfwPB4IUjelp_-40" value="" style="rounded=1;whiteSpace=wrap;html=1;fillColor=#fff2cc;strokeColor=#d6b656;opacity=40;dashed=1;strokeWidth=2;" parent="1" vertex="1">
          <mxGeometry x="20" y="730" width="600" height="230" as="geometry" />
        </mxCell>
        <mxCell id="0UAcNYNrfwPB4IUjelp_-38" value="" style="rounded=1;whiteSpace=wrap;html=1;fillColor=#fff2cc;strokeColor=#d6b656;opacity=40;dashed=1;strokeWidth=2;" parent="1" vertex="1">
          <mxGeometry x="20" y="470" width="600" height="240" as="geometry" />
        </mxCell>
        <mxCell id="0UAcNYNrfwPB4IUjelp_-17" style="rounded=0;orthogonalLoop=1;jettySize=auto;html=1;exitX=0.5;exitY=1;exitDx=0;exitDy=0;entryX=0.977;entryY=0.065;entryDx=0;entryDy=0;entryPerimeter=0;startArrow=classic;startFill=1;" parent="1" source="0UAcNYNrfwPB4IUjelp_-2" target="0UAcNYNrfwPB4IUjelp_-8" edge="1">
          <mxGeometry relative="1" as="geometry">
            <mxPoint x="270" y="303" as="targetPoint" />
          </mxGeometry>
        </mxCell>
        <mxCell id="0UAcNYNrfwPB4IUjelp_-2" value="" style="rounded=1;whiteSpace=wrap;html=1;fontStyle=1;fillColor=#d5e8d4;strokeColor=#82b366;" parent="1" vertex="1">
          <mxGeometry x="200" y="123" width="220" height="110" as="geometry" />
        </mxCell>
        <mxCell id="0UAcNYNrfwPB4IUjelp_-4" value="&lt;b&gt;服务器 A&lt;br&gt;&lt;/b&gt;" style="text;html=1;strokeColor=none;fillColor=none;align=center;verticalAlign=middle;whiteSpace=wrap;rounded=0;" parent="1" vertex="1">
          <mxGeometry x="280" y="133" width="60" height="30" as="geometry" />
        </mxCell>
        <mxCell id="0UAcNYNrfwPB4IUjelp_-6" value="Redis 1（M）" style="ellipse;whiteSpace=wrap;html=1;fontStyle=1;fillColor=#f8cecc;strokeColor=#b85450;" parent="1" vertex="1">
          <mxGeometry x="210" y="173" width="90" height="43" as="geometry" />
        </mxCell>
        <mxCell id="0UAcNYNrfwPB4IUjelp_-7" value="Sentinel 1" style="ellipse;whiteSpace=wrap;html=1;fontStyle=1;fillColor=#dae8fc;strokeColor=#6c8ebf;" parent="1" vertex="1">
          <mxGeometry x="320" y="173" width="90" height="43" as="geometry" />
        </mxCell>
        <mxCell id="0UAcNYNrfwPB4IUjelp_-20" style="rounded=0;orthogonalLoop=1;jettySize=auto;html=1;exitX=0.966;exitY=0.044;exitDx=0;exitDy=0;entryX=0;entryY=0;entryDx=0;entryDy=0;startArrow=classic;startFill=1;exitPerimeter=0;" parent="1" source="0UAcNYNrfwPB4IUjelp_-8" edge="1">
          <mxGeometry relative="1" as="geometry">
            <mxPoint x="271" y="309" as="sourcePoint" />
            <mxPoint x="352" y="308" as="targetPoint" />
          </mxGeometry>
        </mxCell>
        <mxCell id="0UAcNYNrfwPB4IUjelp_-8" value="" style="rounded=1;whiteSpace=wrap;html=1;fontStyle=1;fillColor=#d5e8d4;strokeColor=#82b366;" parent="1" vertex="1">
          <mxGeometry x="50" y="303" width="220" height="110" as="geometry" />
        </mxCell>
        <mxCell id="0UAcNYNrfwPB4IUjelp_-9" value="&lt;b&gt;服务器 B&lt;br&gt;&lt;/b&gt;" style="text;html=1;strokeColor=none;fillColor=none;align=center;verticalAlign=middle;whiteSpace=wrap;rounded=0;" parent="1" vertex="1">
          <mxGeometry x="130" y="313" width="60" height="30" as="geometry" />
        </mxCell>
        <mxCell id="0UAcNYNrfwPB4IUjelp_-10" value="Redis 2（S）" style="ellipse;whiteSpace=wrap;html=1;fontStyle=1;fillColor=#ffe6cc;strokeColor=#d79b00;" parent="1" vertex="1">
          <mxGeometry x="60" y="353" width="90" height="43" as="geometry" />
        </mxCell>
        <mxCell id="0UAcNYNrfwPB4IUjelp_-11" value="Sentinel 2" style="ellipse;whiteSpace=wrap;html=1;fontStyle=1;fillColor=#dae8fc;strokeColor=#6c8ebf;" parent="1" vertex="1">
          <mxGeometry x="170" y="353" width="90" height="43" as="geometry" />
        </mxCell>
        <mxCell id="0UAcNYNrfwPB4IUjelp_-18" style="rounded=0;orthogonalLoop=1;jettySize=auto;html=1;exitX=0.5;exitY=1;exitDx=0;exitDy=0;entryX=0.977;entryY=0.065;entryDx=0;entryDy=0;entryPerimeter=0;startArrow=classic;startFill=1;" parent="1" edge="1">
          <mxGeometry relative="1" as="geometry">
            <mxPoint x="308" y="233" as="sourcePoint" />
            <mxPoint x="353" y="310" as="targetPoint" />
          </mxGeometry>
        </mxCell>
        <mxCell id="0UAcNYNrfwPB4IUjelp_-12" value="" style="rounded=1;whiteSpace=wrap;html=1;fontStyle=1;fillColor=#d5e8d4;strokeColor=#82b366;" parent="1" vertex="1">
          <mxGeometry x="348" y="303" width="220" height="110" as="geometry" />
        </mxCell>
        <mxCell id="0UAcNYNrfwPB4IUjelp_-13" value="&lt;b&gt;服务器 C&lt;br&gt;&lt;/b&gt;" style="text;html=1;strokeColor=none;fillColor=none;align=center;verticalAlign=middle;whiteSpace=wrap;rounded=0;" parent="1" vertex="1">
          <mxGeometry x="428" y="313" width="60" height="30" as="geometry" />
        </mxCell>
        <mxCell id="0UAcNYNrfwPB4IUjelp_-14" value="Redis 3（S）" style="ellipse;whiteSpace=wrap;html=1;fontStyle=1;fillColor=#ffe6cc;strokeColor=#d79b00;" parent="1" vertex="1">
          <mxGeometry x="358" y="353" width="90" height="43" as="geometry" />
        </mxCell>
        <mxCell id="0UAcNYNrfwPB4IUjelp_-15" value="Sentinel 3" style="ellipse;whiteSpace=wrap;html=1;fontStyle=1;fillColor=#dae8fc;strokeColor=#6c8ebf;" parent="1" vertex="1">
          <mxGeometry x="468" y="353" width="90" height="43" as="geometry" />
        </mxCell>
        <mxCell id="0UAcNYNrfwPB4IUjelp_-22" value="" style="rounded=1;whiteSpace=wrap;html=1;fontStyle=1;fillColor=#d5e8d4;strokeColor=#82b366;" parent="1" vertex="1">
          <mxGeometry x="210" y="560" width="220" height="110" as="geometry" />
        </mxCell>
        <mxCell id="0UAcNYNrfwPB4IUjelp_-23" value="&lt;b&gt;服务器 A&lt;br&gt;&lt;/b&gt;" style="text;html=1;strokeColor=none;fillColor=none;align=center;verticalAlign=middle;whiteSpace=wrap;rounded=0;" parent="1" vertex="1">
          <mxGeometry x="289" y="570" width="62" height="30" as="geometry" />
        </mxCell>
        <mxCell id="0UAcNYNrfwPB4IUjelp_-24" value="Redis 1（M）" style="ellipse;whiteSpace=wrap;html=1;fontStyle=1;fillColor=#f8cecc;strokeColor=#b85450;" parent="1" vertex="1">
          <mxGeometry x="220" y="610" width="90" height="43" as="geometry" />
        </mxCell>
        <mxCell id="0UAcNYNrfwPB4IUjelp_-25" value="Sentinel 1" style="ellipse;whiteSpace=wrap;html=1;fontStyle=1;fillColor=#dae8fc;strokeColor=#6c8ebf;" parent="1" vertex="1">
          <mxGeometry x="330" y="610" width="90" height="43" as="geometry" />
        </mxCell>
        <mxCell id="tBZ07gF4I0qtfdpQfURT-1" style="edgeStyle=orthogonalEdgeStyle;rounded=0;orthogonalLoop=1;jettySize=auto;html=1;exitX=1;exitY=0.5;exitDx=0;exitDy=0;entryX=0;entryY=0.5;entryDx=0;entryDy=0;startArrow=classic;startFill=1;" edge="1" parent="1" source="0UAcNYNrfwPB4IUjelp_-27" target="0UAcNYNrfwPB4IUjelp_-32">
          <mxGeometry relative="1" as="geometry" />
        </mxCell>
        <mxCell id="0UAcNYNrfwPB4IUjelp_-27" value="" style="rounded=1;whiteSpace=wrap;html=1;fontStyle=1;fillColor=#d5e8d4;strokeColor=#82b366;" parent="1" vertex="1">
          <mxGeometry x="60" y="810" width="220" height="110" as="geometry" />
        </mxCell>
        <mxCell id="0UAcNYNrfwPB4IUjelp_-28" value="&lt;b&gt;服务器 B&lt;br&gt;&lt;/b&gt;" style="text;html=1;strokeColor=none;fillColor=none;align=center;verticalAlign=middle;whiteSpace=wrap;rounded=0;" parent="1" vertex="1">
          <mxGeometry x="140" y="820" width="60" height="30" as="geometry" />
        </mxCell>
        <mxCell id="0UAcNYNrfwPB4IUjelp_-29" value="Redis 2（M）" style="ellipse;whiteSpace=wrap;html=1;fontStyle=1;fillColor=#f8cecc;strokeColor=#b85450;" parent="1" vertex="1">
          <mxGeometry x="70" y="860" width="90" height="43" as="geometry" />
        </mxCell>
        <mxCell id="0UAcNYNrfwPB4IUjelp_-30" value="Sentinel 2" style="ellipse;whiteSpace=wrap;html=1;fontStyle=1;fillColor=#dae8fc;strokeColor=#6c8ebf;" parent="1" vertex="1">
          <mxGeometry x="180" y="860" width="90" height="43" as="geometry" />
        </mxCell>
        <mxCell id="0UAcNYNrfwPB4IUjelp_-32" value="" style="rounded=1;whiteSpace=wrap;html=1;fontStyle=1;fillColor=#d5e8d4;strokeColor=#82b366;" parent="1" vertex="1">
          <mxGeometry x="359" y="810" width="220" height="110" as="geometry" />
        </mxCell>
        <mxCell id="0UAcNYNrfwPB4IUjelp_-33" value="&lt;b&gt;服务器 C&lt;br&gt;&lt;/b&gt;" style="text;html=1;strokeColor=none;fillColor=none;align=center;verticalAlign=middle;whiteSpace=wrap;rounded=0;" parent="1" vertex="1">
          <mxGeometry x="439" y="820" width="60" height="30" as="geometry" />
        </mxCell>
        <mxCell id="0UAcNYNrfwPB4IUjelp_-34" value="Redis 3（S）" style="ellipse;whiteSpace=wrap;html=1;fontStyle=1;fillColor=#fff2cc;strokeColor=#d6b656;" parent="1" vertex="1">
          <mxGeometry x="369" y="860" width="90" height="43" as="geometry" />
        </mxCell>
        <mxCell id="0UAcNYNrfwPB4IUjelp_-35" value="Sentinel 3" style="ellipse;whiteSpace=wrap;html=1;fontStyle=1;fillColor=#dae8fc;strokeColor=#6c8ebf;" parent="1" vertex="1">
          <mxGeometry x="479" y="860" width="90" height="43" as="geometry" />
        </mxCell>
        <mxCell id="0UAcNYNrfwPB4IUjelp_-41" value="网络分区" style="text;html=1;strokeColor=none;fillColor=none;align=center;verticalAlign=middle;whiteSpace=wrap;rounded=0;fontStyle=1;fontSize=16;" parent="1" vertex="1">
          <mxGeometry x="280" y="500" width="80" height="30" as="geometry" />
        </mxCell>
        <mxCell id="0UAcNYNrfwPB4IUjelp_-43" value="网络分区" style="text;html=1;strokeColor=none;fillColor=none;align=center;verticalAlign=middle;whiteSpace=wrap;rounded=0;fontStyle=1;fontSize=16;" parent="1" vertex="1">
          <mxGeometry x="280" y="760" width="80" height="30" as="geometry" />
        </mxCell>
      </root>
    </mxGraphModel>
  </diagram>
</mxfile>
